<svg id="Layer_1" data-name="Layer 1" xmlns="http://www.w3.org/2000/svg" viewBox="0 0 1080 1920"><defs><style>.cls-1{fill:#231f20;}.cls-2{fill:#3a3738;}.cls-3{fill:#2f2b2c;}.cls-4{fill:#494646;}.cls-5{fill:#474344;}.cls-6{fill:#2a2627;}.cls-7{fill:#262223;}.cls-8{fill:#454243;}.cls-9{fill:#4b4849;}.cls-10{fill:#292627;}.cls-11{fill:#403d3e;}.cls-12{fill:#4e4b4b;}.cls-13{fill:#2b2728;}.cls-14{fill:#2e2b2c;}.cls-15{fill:#545152;}.cls-16{fill:#535051;}.cls-17{fill:#282425;}.cls-18{fill:#363334;}.cls-19{fill:#fefefe;}.cls-20{fill:#322e2f;}.cls-21{fill:#242021;}.cls-22{fill:#3e3b3c;}.cls-23{fill:#4d494a;}.cls-24{fill:#4d4a4b;}.cls-25{fill:#292526;}.cls-26{fill:#484546;}.cls-27{fill:#524f50;}.cls-28{fill:#232020;}.cls-29{fill:#5b5858;}.cls-30{fill:#413e3f;}.cls-31{fill:#565354;}.cls-32{fill:#5c595a;}.cls-33{fill:#2b2829;}.cls-34{fill:#333031;}.cls-35{fill:#454142;}.cls-36{fill:#474445;}.cls-37{fill:#343031;}.cls-38{fill:#595657;}.cls-39{fill:#403d3d;}.cls-40{fill:#4e4a4b;}.cls-41{fill:#504d4d;}.cls-42{fill:#494546;}.cls-43{fill:#322f30;}.cls-44{fill:#646162;}.cls-45{fill:#3d393a;}.cls-46{fill:#373334;}.cls-47{fill:#252122;}.cls-48{fill:#434041;}.cls-49{fill:#e6e5e5;}.cls-50{fill:#4b4748;}.cls-51{fill:#403c3d;}.cls-52{fill:#353233;}.cls-53{fill:#363233;}.cls-54{fill:#2f2c2c;}.cls-55{fill:#fdfdfd;}.cls-56{fill:#f9f9f9;}.cls-57{fill:#fbfbfb;}</style></defs><path class="cls-1" d="M681.78,797.05c2-.15.59,1.37,1,2-.95,1.72-.48,3.59-.48,5.38q0,115.43,0,230.86c0,1.79-.47,3.66.48,5.38v1c-3,2.57-6.62,1.81-10,1.81q-103.72.07-207.44,0c-6.65,0-13.3,0-19.94,0-2.49,0-5,.08-7.05-1.82v-1c.95-1.72.48-3.59.48-5.38q0-115.42,0-230.86c0-1.79.47-3.66-.48-5.38.41-.63-1-2.15,1-2,1.71,1,3.58.49,5.37.49q115.86,0,231.73,0C678.2,797.54,680.07,798,681.78,797.05Z"/><path class="cls-2" d="M681.78,797.05c-1.49,1.58-3.43,1-5.18,1q-116.05,0-232.11,0c-1.75,0-3.69.6-5.18-1Z"/><path class="cls-2" d="M438.31,799.05c1.59,1.48,1,3.43,1,5.18q0,115.64,0,231.25c0,1.76.62,3.7-1,5.19Z"/><path class="cls-2" d="M682.78,1040.67c-1.59-1.49-1-3.43-1-5.19q0-115.62,0-231.25c0-1.75-.62-3.7,1-5.18Z"/><path class="cls-3" d="M516.14,1077.61c.28-4.52-.82-9.18.58-13.58l1.42.07v13.51Z"/><path class="cls-4" d="M607,1075.5c2.18.9,4.82-1,6.81,1.11-1.81,1.26-4.08-.29-5.88,1h-3c.95-4.62-1-9.44,1-14l.48.55C606.77,1067.94,605.83,1071.77,607,1075.5Z"/><path class="cls-5" d="M627.9,1077.61l.13-1c.78-1.68.15-3.48.44-5.2.36-.77.82-1.27,1.69-.6-1.36,3.37-1,5.48,3.41,5,1.48-.18,3.08-.25,3.31,1.9Z"/><path class="cls-6" d="M642.57,1067.81c-1.06-.74-1.64-.79-1.61.83,0,3-.05,6-.09,9h-1a61.35,61.35,0,0,1,.2-14.31c2.18,1,2.82,2.74,3.62,4.29C643.43,1068.25,643.05,1068.32,642.57,1067.81Z"/><path class="cls-7" d="M656.84,1077.61c-1.54-4.34,1.27-9.16-1.57-13.4-.56-.84.59-.85,1.15-.87,1.24,0,1.7.61,1.66,1.84-.12,4.14-.17,8.29-.24,12.43Z"/><path class="cls-8" d="M559.05,1077.61a4.23,4.23,0,0,1-.27-.57c0-.09.05-.21.08-.32a1.51,1.51,0,0,1,1.24-1.21c2.14,1.25,5.6-1.83,6.93,2.1Z"/><path class="cls-9" d="M481.26,1076.63l0,1h-7l.17-1a4.9,4.9,0,0,1,2.12-1.78,5,5,0,0,1,3.52.14A2.25,2.25,0,0,1,481.26,1076.63Z"/><path class="cls-10" d="M665.82,1077.61c.08-.66-1.78-1.66.24-1.92a20.66,20.66,0,0,1,3.76.16,1.07,1.07,0,0,1,.94.75l0,1Z"/><path class="cls-11" d="M588,1077.61l-1.16-1.53a1.89,1.89,0,0,1,0-1.56,4.91,4.91,0,0,1,5.32.85,1.84,1.84,0,0,1-.16,2.24Z"/><path class="cls-12" d="M619.92,1077.61c-.22-1.35-1.49-2.52-.68-4l.67,0a2.27,2.27,0,0,1,.86,0,.86.86,0,0,1,1.33.11,7.14,7.14,0,0,1-1.19,3.93Z"/><path class="cls-13" d="M571,1077.61c-.08-.69-1-2-.47-1.85,1.48.56,4.27-1.6,4.46,1.85Z"/><path class="cls-14" d="M523.13,1077.61c-.11-.66-1-2.06-.33-1.79,1.41.58,4.29-1.86,4.32,1.79Z"/><path class="cls-15" d="M535,1075.72c2-.25,4-.52,5.05,1.89h-4l-1-2Z"/><path class="cls-16" d="M499.24,1076.79a.86.86,0,0,1-.06.82h-4l.07-2a2.85,2.85,0,0,1,3.87-.37A1.11,1.11,0,0,1,499.24,1076.79Z"/><path class="cls-17" d="M463.25,1077.61c.47-1.54,1.59-1.87,3.05-1.76s1,1,.95,1.76Z"/><path class="cls-18" d="M648.85,1077.61c-.64-1-1.28-2.07-1.93-3.1-.27-1,.12-1.28,1.06-1a2.64,2.64,0,0,1,.74-.16c.62.16.68.79,1,1.21l.14,3Z"/><path class="cls-11" d="M449.29,1073.54a4.86,4.86,0,0,1-1,4.07h-1C447.3,1075.93,447.66,1074.42,449.29,1073.54Z"/><path class="cls-19" d="M667.87,919.35c0,34.27,0,68.54.07,102.82,0,3.6-.45,5-4.7,5q-102.75-.24-205.51,0c-3.78,0-4.61-.92-4.6-4.63q.18-103.06,0-206.13c0-3.94,1.2-4.5,4.73-4.5q102.75.17,205.51,0c3.76,0,4.62.91,4.6,4.64C667.8,850.81,667.87,885.08,667.87,919.35Z"/><path class="cls-20" d="M476.22,1064.62a44.49,44.49,0,0,0,0,11.06l-1.79.9q-.07-6.48-.17-13a1.81,1.81,0,0,1,2-.24.87.87,0,0,1,.24.83C476.39,1064.49,476.31,1064.62,476.22,1064.62Z"/><path class="cls-21" d="M560.1,1075.51l-1.24,1.21c-.88-4.37-.54-8.7-.25-13h1.49Z"/><path class="cls-16" d="M488.09,1064.59c1.57,3.94,1.08,7.89.28,11.85C486.72,1072.53,487.19,1068.56,488.09,1064.59Z"/><path class="cls-7" d="M462.17,1063.69V1075C460,1071.37,460.48,1067.56,462.17,1063.69Z"/><path class="cls-22" d="M541.36,1074.42v-10.79A11.21,11.21,0,0,1,541.36,1074.42Z"/><path class="cls-23" d="M591.11,1071.65c-1.12-.12-1.84-1.44-3.14-1,.54-1.56-.72-2.72-.92-4.11-.28-2,1-3,2.61-3.52,1.35-.42,1.6.55,1.25,1.69,0,.19-.06.38-.08.57a4.17,4.17,0,0,0,0,2.79c0,.19.07.38.11.56Z"/><path class="cls-24" d="M494.2,1065.56c0,3,0,6,0,9.07C491.38,1072.17,491.39,1068.43,494.2,1065.56Z"/><path class="cls-7" d="M535.14,1075.63c-4.63-3.41-.95-7.9-2.24-11.74l1.35-.19q.39,6,.79,12Z"/><path class="cls-25" d="M469.1,1075.07v-11.25A14.11,14.11,0,0,1,469.1,1075.07Z"/><path class="cls-26" d="M482.41,1072.68c.23-2.21-1.09-4.61.82-6.6a9,9,0,0,1,0,8.6C482.43,1074.24,482.91,1073.25,482.41,1072.68Z"/><path class="cls-27" d="M499.2,1075.71c1.85-2.86,1.06-6,1.12-9.11a.78.78,0,0,1,1.23.29c.43,2.21-.38,4.51.5,6.68,0,1.91-1.29,2.65-2.81,3.22Z"/><path class="cls-28" d="M649.71,1074.59l-1-1.21v-9.57l1-.08Z"/><path class="cls-29" d="M619.91,1073.62l-.33,0-.34-.07c-1.79-1.6-2.23-3.7-2.18-6a.57.57,0,0,1,1,0C619.54,1069.32,619.7,1071.48,619.91,1073.62Z"/><path class="cls-30" d="M511.1,1070.48a8.21,8.21,0,0,1,2.06-7.11C513.76,1066.12,512.28,1068.26,511.1,1070.48Z"/><path class="cls-3" d="M510.4,1071.71c.56,2.14,0,3.72-1.61,4.68-.22.13-1.2-.48-1.39-.93C506.16,1072.47,510.56,1074,510.4,1071.71Z"/><path class="cls-31" d="M622,1069.65l1.74-5.85c1.49,3.44.32,5.27-.65,7.13C622.42,1070.78,622.37,1070.08,622,1069.65Z"/><path class="cls-32" d="M665.56,1070a6.3,6.3,0,0,1-.84-.48c-1.38-1.11-1.31-2.55-.75-4,.11-.3,1-.63,1.18-.49,1.24,1,.13,2.44.67,3.59A.81.81,0,0,1,665.56,1070Z"/><path class="cls-2" d="M528.41,1070.48c2.09,1.2,2.25,2.86,1.18,4.92-2.4-.43-.36-3.47-2.43-4C527.1,1070.45,527.41,1070,528.41,1070.48Z"/><path class="cls-33" d="M630.16,1070.76l-1.57.91-.58-.05v-2c.34-.43.38-1.1,1-1.25,1.56,2.4,4.49.1,6.32,1.84C633.72,1071.5,631.9,1070.77,630.16,1070.76Z"/><path class="cls-21" d="M629.06,1068.35l-1,1.25c.59-2-2.27-5.15,1.89-6.08.57.37.56.74,0,1.1C629.61,1065.86,629.34,1067.11,629.06,1068.35Z"/><path class="cls-34" d="M549,1066.38c.14-1.13.18-2.74,1.48-2.75,1.74,0,1.38,1.81,1.64,3a2.68,2.68,0,0,1-.82,1,2.4,2.4,0,0,1-1.81.35C548.84,1067.55,548.56,1067.07,549,1066.38Z"/><path class="cls-24" d="M507.35,1072.54c-1.27-1.43-2.46-2.93-1.33-5.7A6.63,6.63,0,0,1,507.35,1072.54Z"/><path class="cls-35" d="M528.41,1070.48l-1.25.93c-1.65-.66-3.94.19-4.89-2.1l.3-.42C524.55,1069.31,526.72,1069,528.41,1070.48Z"/><path class="cls-36" d="M575.86,1071.81c-1.64-1.16-4.22-.1-5.43-2.29a.84.84,0,0,1,.55-.75c1.41,1.34,5.28-1,4.79,3.17Z"/><path class="cls-37" d="M665.56,1070l.26-1.37c1.85,1.39,5.08-.09,6.14,2.94a.72.72,0,0,1-1.26.1Z"/><path class="cls-38" d="M455.07,1070.65c-1.22-1.07-1.23-2.67-1.75-4.05a1.2,1.2,0,0,1,1-1.07,8.56,8.56,0,0,1,1.8,5.14C455.76,1071.12,455.41,1071.11,455.07,1070.65Z"/><path class="cls-1" d="M548.14,1073.8l-2.1.93a4.6,4.6,0,0,1,.93-4.17c.81-.43,1.28,0,1.68.65a3.25,3.25,0,0,1,.18,1.38A3.56,3.56,0,0,1,548.14,1073.8Z"/><path class="cls-31" d="M571,1068.77l-.55.75c-2.68-1.38-1.81-3-.13-5.5C570.61,1066.16,570.8,1067.47,571,1068.77Z"/><path class="cls-36" d="M454.32,1065.53l-1,1.07h-1.08c-.34.56-.71.59-1.12.07-.77-1.74.81-2.7,1.7-3.11S454.25,1064.5,454.32,1065.53Z"/><path class="cls-39" d="M593.05,1074.49l-1-1.77c2,.62,2.84-.92,3.83-2.52,1.06,2.28-.34,3.53-.83,5Z"/><path class="cls-3" d="M450.24,1072.2c1.63.72,3.33.49,5,.38a.88.88,0,0,1-.05,1.19c-2,.82-4,.18-6-.14Z"/><path class="cls-40" d="M551.2,1066.58a1.37,1.37,0,0,1,.87,0c1.48,1,1.37,2.64,1.8,4.07-.28.74-.67,1.33-1.62,1.11C550.46,1070.35,549.88,1068.66,551.2,1066.58Z"/><path class="cls-41" d="M522.57,1068.89a3.19,3.19,0,0,0-.3.42c-2.33-2-2.67-3.61.67-4.74l-.12-.11Z"/><path class="cls-42" d="M451.12,1066.68l1.12-.07a9.72,9.72,0,0,1-2,5.48C448.17,1069.91,451,1068.52,451.12,1066.68Z"/><path class="cls-43" d="M629.89,1064.62l0-1.1a16,16,0,0,1,6.43-.15v1.25Z"/><path class="cls-44" d="M618.06,1067.57l-1,0a3.53,3.53,0,0,1-.85-4.78C617.72,1064.06,618,1065.78,618.06,1067.57Z"/><path class="cls-45" d="M522.94,1064.57c1.41-2.56,3.07-1.82,4.81-.11h-4.92Z"/><path class="cls-4" d="M613.55,1062.83a3.86,3.86,0,0,1,.09.84c-2.43.83-4.91.44-7.38.28l-.32-.32C608.37,1062.31,611.06,1063.52,613.55,1062.83Z"/><path class="cls-46" d="M670.7,1071.66l1.26-.1c2,2.25,1.32,3.86-1.2,5l-.94-.75C671.38,1074.72,671.92,1073.37,670.7,1071.66Z"/><path class="cls-26" d="M575.77,1071.94c2.88.3,2.88.3,1.1,3.75-1.3-1.11.34-2.94-1-3.88A1.13,1.13,0,0,0,575.77,1071.94Z"/><path class="cls-47" d="M553,1071.7l.86-1c.43,1.58,1.63,3,1.11,4.79l-2-1.61a2,2,0,0,1-.53-1.1A1.66,1.66,0,0,1,553,1071.7Z"/><path class="cls-1" d="M455.21,1073.77l.05-1.19c-.07-.64-.13-1.29-.19-1.93l1.05,0c-.1,1.69,1.8,2.95,1.06,4.79Z"/><path class="cls-40" d="M642.57,1067.81l1.12-.22,2.77,3.87a.83.83,0,0,1-1.36.08A5.64,5.64,0,0,1,642.57,1067.81Z"/><path class="cls-48" d="M548.11,1071.68l-1.14-1.12,2-4.18.82,1.22C550.67,1069.55,550.69,1071.15,548.11,1071.68Z"/><path class="cls-1" d="M499.14,1064.77l-4.89-.26a3.35,3.35,0,0,1,4.9-.66c.28.21.38.41.28.61S499.24,1064.77,499.14,1064.77Z"/><path class="cls-25" d="M502.05,1073.57c-1.5-2.17-.4-4.65-.8-7,.25-.42.48-.41.7,0Q502,1070.11,502.05,1073.57Z"/><path class="cls-49" d="M481.24,1063.47a4.85,4.85,0,0,1-5,.1l-2,0"/><path class="cls-50" d="M590.91,1064.68c.84-.19,1.88-1,2.24.55.45,1.86-.23,3.08-2.23,3.37l.1.07c-1.24-1.36-.8-2.73,0-4.09Z"/><path class="cls-6" d="M482.41,1072.68l.83,2a2.32,2.32,0,0,1-2,2l-1-.86A4.08,4.08,0,0,0,482.41,1072.68Z"/><path class="cls-22" d="M586.88,1070.68c.07,1.24.14,2.48.2,3.72l-.25,1.68C585,1074.26,584.9,1072.46,586.88,1070.68Z"/><path class="cls-51" d="M622,1069.65l1.09,1.28c-.15,1,0,2.09-1,2.75l-1.33-.11C621.19,1072.26,621.6,1071,622,1069.65Z"/><path class="cls-38" d="M504.34,1063.23c1.52.76,1.91,1.77,1.57,3-.07.25-1.13.51-1.19.42C504.12,1065.69,503.51,1064.69,504.34,1063.23Z"/><path class="cls-52" d="M476.23,1063.57l5-.1.89,1-5.91.13Z"/><path class="cls-31" d="M645.1,1071.54l1.36-.08,1.52,2.08-1.06,1C645.94,1073.75,645,1073,645.1,1071.54Z"/><path class="cls-47" d="M628,1071.62l.58,0c0,1.65.72,3.39-.56,4.9C628,1074.91,628,1073.27,628,1071.62Z"/><path class="cls-53" d="M502,1066.64h-.35l-.35,0h-.47l-.46,0-1.18-1.83a4,4,0,0,1,0-.92C500.85,1064,501.58,1065.15,502,1066.64Z"/><path class="cls-20" d="M606.26,1064l7.38-.28c-.59,1.87-2.13.87-3.22,1-1.78.16-3.6-.39-3.51,2.62.08,2.74,1.76,2.21,3.34,2.26.79,0,1.57.1,4,.26-4,1.52-8.87.33-7.2,5.73C604.93,1071.77,606.38,1067.8,606.26,1064Z"/><path class="cls-54" d="M553,1072.45l0,1.42a8.42,8.42,0,0,1-4.82-.07v-1.33A4.3,4.3,0,0,1,553,1072.45Z"/><path class="cls-1" d="M570.22,935.36c2.12-8.54,3.88-15.7,5.68-22.86.79-3.16,5.62-5.26,8.4-3.72,1.27.7.68,1.69.45,2.56-3.28,12.35-6.67,24.69-9.85,37.07-.69,2.69-2.36,2.58-4.44,2.71-2.39.14-3.6-.61-4.27-3-2-7.18-4.24-14.31-6.77-22.73-2.39,8-4.51,14.77-6.49,21.63-.75,2.58-1.57,4.22-4.93,4.15s-3.72-1.62-4.36-4.08c-3.27-12.67-6.7-25.29-10.09-38,8.44-1,8.45-1,10.27,6.48,1.48,6.13,2.93,12.26,4.72,19.74,2.42-8.32,4.51-15.46,6.56-22.6.64-2.22.95-4.2,4.31-4.22s3.66,2,4.3,4.23C565.75,919.88,567.81,927,570.22,935.36Z"/><path class="cls-21" d="M499,988.83c0,6.48-.22,13,.09,19.44.18,3.9-2.14,3.37-4.43,3.27-2.1-.09-4.86,1-4.58-3.06s-.06-8.32.11-12.47c.1-2.46-.43-3.42-3.22-3.51-12.11-.37-12.11-.48-12.11,11.46a24,24,0,0,0,0,4c.68,4.11-2.06,3.52-4.58,3.66-2.9.17-4.47-.2-4.4-3.88q.38-18.94,0-37.9c-.08-3.85,1.78-3.81,4.52-3.79s4.88-.1,4.51,3.81,0,8-.12,12c-.07,2.09.51,3.19,2.76,2.9a2.78,2.78,0,0,1,.5,0c12.05.58,12.05.58,12.05-11.51a18.63,18.63,0,0,0,0-3c-.66-3.82,1.33-4.18,4.52-4.24,3.44-.06,4.63.82,4.45,4.42C498.76,976.51,499,982.68,499,988.83Z"/><path class="cls-1" d="M538.74,988.83c-.13,2.64-.19,5.13-.4,7.6-.8,9.47-6.92,15.3-16.13,15.42-9.55.14-16.12-5.62-16.81-15.22a105.62,105.62,0,0,1,0-15.91c.76-9.34,7.27-15,16.59-14.94s15.48,5.85,16.3,15.25C538.55,983.67,538.61,986.32,538.74,988.83Z"/><path class="cls-21" d="M625.29,988.49c0-6.14.14-12.29-.06-18.43-.09-2.88.47-4.16,3.75-4.06,7.63.24,15.27.23,22.9,0,3.35-.1,3.29,1.68,3.25,4s.37,4.24-3.13,4c-4.79-.29-9.62,0-14.43-.12-2.42-.07-3.49.39-3.53,3.22-.11,7.53-.28,7.53,7.15,7.53a37.14,37.14,0,0,0,6-.05c4.51-.77,5.23,1.42,4.91,5.26-.19,2.19-.85,2.84-3,2.77-3.81-.14-7.64.13-11.44-.1-2.85-.17-4,.76-3.58,3.63a11,11,0,0,1,0,3.48c-.61,3.54,1.16,4.14,4.22,4,4.64-.22,9.3.14,13.93-.12,3.24-.19,3,1.7,2.85,3.74s.82,4.41-2.88,4.32c-8-.2-15.94-.15-23.9,0-2.47,0-3.1-.87-3.06-3.19C625.37,1001.78,625.29,995.14,625.29,988.49Z"/><path class="cls-1" d="M655,950.82c-9.33.54-9.33.54-13.12-7.28-1.23-2.54-2.62-5-3.7-7.6s-3.29-1.79-5.12-1.77c-2.38,0-1.66,2-1.69,3.37-.06,3-.18,6,0,9s-.08,4.83-4,4.7c-3.47-.1-4.43-1-4.36-4.46.22-11.45.17-22.92,0-34.38,0-2.73.55-3.87,3.52-3.72,4.81.25,9.64-.07,14.44.15a12.52,12.52,0,0,1,11.89,9c1.61,5.5.1,10.42-5,13.86-2,1.35-1.75,2.18-.87,3.83C649.65,940.39,652.18,945.39,655,950.82Z"/><path class="cls-1" d="M544.72,982.94c0-4.65.14-9.31-.05-14-.17-4.17,2.81-2.69,4.8-2.88,2.18-.21,4.19-.49,4.08,3.06-.25,8.63-.2,17.27,0,25.91.12,6.1,3.12,9.08,8.36,8.81,4.59-.23,7.2-3,7.27-8.32.11-8.63.27-17.28-.07-25.91-.17-4.13,2.16-3.59,4.66-3.6,2.34,0,4.49-.47,4.36,3.35-.3,9,0,17.94-.15,26.91-.21,9.29-7,15.52-16.55,15.54s-16.29-6.17-16.64-15.46C544.59,991.92,544.73,987.43,544.72,982.94Z"/><path class="cls-1" d="M599.75,1011.84c-4.22,0-8.37-.57-11.85-3.08-1.21-.87-4.91-1.31-2.52-3.89,1.53-1.65,2.55-6.15,6.79-3,3.41,2.49,7.53,2.43,11.53,1.84,2.87-.43,5-2,5.09-5.21s-1.91-4.79-4.84-5.33c-2.61-.48-5.26-.74-7.86-1.3-6.28-1.35-9.62-4.93-10.11-10.65-.56-6.45,2.37-11.83,8.12-14a21.46,21.46,0,0,1,18.31,1.08c1.32.71,4.44,1.64,2.91,3.42s-2.49,6.22-6.72,3.42c-2.62-1.73-5.69-1.75-8.69-1.41s-5,1.89-5.3,5c-.31,3.34,1.84,4.75,4.73,5.31,2.6.51,5.26.8,7.84,1.38,6.54,1.45,9.64,4.91,10.17,11.13s-2.19,11.06-7.88,13.64A21.17,21.17,0,0,1,599.75,1011.84Z"/><path class="cls-21" d="M531.83,929.89c0,2.32.18,4.65,0,7-.84,9.12-6.89,14.73-15.62,14.66s-14.73-5.68-15.26-14.9a105.85,105.85,0,0,1,.14-14.9c.67-7.9,6.54-13.08,14.62-13.42s14.34,4.52,15.71,12.21c.55,3.08.56,6.25.81,9.38Z"/><path class="cls-1" d="M588.94,929.93c0-6,.14-12-.06-18-.09-2.68.8-3.38,3.38-3.32,7.14.16,14.29.23,21.43,0,3.43-.12,3.09,1.74,3.21,4,.13,2.53-.51,3.59-3.26,3.44-4.15-.22-8.34.23-12.46-.14s-4.32,1.65-4,4.7c.23,2.58-1.13,6,3.8,5.4a60.53,60.53,0,0,1,8,0c2.49,0,5.09-1,5.17,3.59.09,4.92-2.78,3.81-5.42,3.86-1.66,0-3.33,0-5,0-6.38,0-8.11,2.38-6.56,8.6.49,1.95,1.76,1.63,3,1.63,4.65,0,9.31.18,14,0,3.35-.16,2.65,2,2.79,3.89.17,2.35-.2,3.65-3.11,3.57-7.31-.2-14.63-.17-21.93,0-2.59.06-3-1-2.93-3.23C589,941.9,588.94,935.91,588.94,929.93Z"/><path class="cls-21" d="M466.52,929.42c0-5.66.11-11.32,0-17-.08-2.63.37-4,3.45-3.81,5,.27,10-.13,15,.21A12.79,12.79,0,0,1,497,922.19c-.14,6.9-5.11,12-12.16,12.88-3.28.42-7.73-1.88-9.58,1.42-1.42,2.54-.43,6.49-.32,9.81.09,2.85.3,5-3.94,4.93-3.89-.06-4.75-1.23-4.56-4.84C466.74,940.75,466.52,935.08,466.52,929.42Z"/><path class="cls-55" d="M530,988.72c-.25,3-.32,6-.79,8.91-.63,3.92-3.07,6.17-7.12,6.25-4.27.08-7.05-2.2-7.6-6.32a62.22,62.22,0,0,1,.07-17.82c.6-3.92,3.35-6,7.36-6s6.59,2.14,7.26,6.09C529.67,982.75,529.73,985.74,530,988.72Z"/><path class="cls-56" d="M631.31,921c-.64-3.32.09-5.53,5-5.13,6,.49,8.76,1.85,8.78,5.73s-2.55,5.58-8.72,5.58C631.32,927.21,631.32,927.21,631.31,921Z"/><path class="cls-55" d="M508.93,929.84a78.19,78.19,0,0,1,.43-8c.59-4,3.15-6.21,7.22-6.08,3.83.12,6.11,2.33,6.64,6.15a57.75,57.75,0,0,1,0,15.92c-.53,3.83-2.87,6-6.69,6.1-4.06.09-6.6-2.14-7.18-6.16C509,935.18,509.05,932.5,508.93,929.84Z"/><path class="cls-57" d="M475,921.44c-.74-3.81,0-6,4.93-5.53,5.86.51,8.61,1.88,8.75,5.78.16,4.13-2.66,5.52-8.84,6.16C474,928.45,474.7,925.09,475,921.44Z"/></svg>