<svg id="Layer_1" data-name="Layer 1" xmlns="http://www.w3.org/2000/svg" viewBox="0 0 1080 1920"><path d="M648.76,934.37H629.22V857.81l-.45-.18a18.72,18.72,0,0,0-1.12,1.57A98.84,98.84,0,0,0,614,903.87c-1.05,15.68,1,30.78,8.46,44.85a53.9,53.9,0,0,0,16,18.84,7.16,7.16,0,0,0,6.46,1.24c9.15-2.22,16.68-7.22,23.46-13.44A127.44,127.44,0,0,0,679,943.94c-7-1-12-4.41-14.71-10.94l8.58-3.89c-.27-.38-.36-.63-.54-.76-10.74-7.85-13.2-19.05-12.75-31.44q.42-11.14.84-22.29c0-.86,0-1.72,0-2.84H651v-16.3h9.49v-8.11c0-3.68,0-7.36,0-11,0-.63.5-1.67,1-1.81,5.43-1.56,10.89-3,16.66-4.53v25.28h13.63v16.46H681.28c-3.13,0-3.15,0-3.13,3.13.08,10.39.06,20.79.31,31.18.15,6.59,4.18,10.65,9.81,13.31a3.27,3.27,0,0,0,2.54-.58,159.08,159.08,0,0,0,35-31.18c1.38-1.67,2.73-2.72,5-2.57a29.29,29.29,0,0,0,4.05-.36c1.35-.11,2.71-.16,4.43-.25,7.29,25.63,10.16,51.32,1.48,77.61-3.49-1-6.71-1.91-9.85-3a3.33,3.33,0,0,0-4,1c-12.5,12.38-27,21.15-44.6,24.09A71.54,71.54,0,0,1,654.49,983c-8.23-1.86-16.6-3.14-24.82-5.05-13.34-3.09-22.36-11.47-27.92-23.8a75.87,75.87,0,0,1-6.26-38.83A124.41,124.41,0,0,1,622,848.59a17.73,17.73,0,0,1,2.82-3.26c3.77-2.94,5-6.74,4.32-11.35a11.29,11.29,0,0,1,.09-1.85,65.27,65.27,0,0,0,6.86-.06,10,10,0,0,0,4.6-1.48c10.58-7.69,22-13.23,35.16-14.79a51.11,51.11,0,0,1,17.5.74c-2.74,0-5.13-.13-7.49,0a47.65,47.65,0,0,0-7.35,1,68.5,68.5,0,0,0-27.77,13.54,4.9,4.9,0,0,0-2,4.25q.09,48,0,96Z"/><path d="M433,950.71l14.15-10.14c9.86,11.45,21.71,12.34,34.39,6,7.35-3.69,11.74-14.37,10.46-23.33-.56.45-1.05.79-1.49,1.19-11.18,10.32-24.26,12.67-38.32,8-13.86-4.6-22.32-14.77-25.09-29-3.23-16.62.76-31.26,14.65-41.93,10.95-8.41,23.47-9.91,36.63-6.46A25,25,0,0,1,490,862c.49.51,1,1,1.54,1.47,0,0,.15,0,.45,0,.15-2.59.31-5.2.47-8H508.8c.05.74.14,1.44.14,2.13,0,22.56.08,45.11,0,67.67-.08,16.32-7.07,28.87-21.54,36.66-17.32,9.33-40.29,4.88-53.24-9.92C433.82,951.74,433.54,951.35,433,950.71Zm59.27-56.54a24,24,0,0,0-24.08-24.54c-12.64-.07-23.26,10.79-23.42,23.93-.15,13.73,10.15,24.37,23.76,24.52C481.91,918.24,492.22,907.85,492.31,894.17Z"/><path d="M514.44,855.5h17.2v8.94c.75-.63,1.06-.84,1.3-1.1,9.47-10.19,21.23-12.5,33.77-8.1,12.7,4.47,19.76,14.62,20.46,27.89.84,15.88.35,31.83.43,47.74,0,1.1,0,2.21,0,3.46H569.9v-3.17c0-12.88,0-25.76,0-38.64a46.33,46.33,0,0,0-.43-7.17C567.8,875.29,560.72,870,550,870.78c-11.53.8-18.24,8.08-18.31,20.09-.08,13.44,0,26.88,0,40.32v3.08H514.44Z"/><path d="M400.83,864.57l-9.66,11.65c-4.49-2.37-8.56-4.93-12.94-6.74a21.81,21.81,0,0,0-16.39-.32c-2.76,1-5.2,2.53-6.35,5.46-1.32,3.37-.39,6.7,3.14,8.28a67.3,67.3,0,0,0,11.58,3.59c5.74,1.39,11.59,2.29,17.31,3.75,16.3,4.14,21.76,22.47,10.48,35.07-5.74,6.41-13.17,9.77-21.56,11-16.37,2.32-30.27-3.33-42.53-13.45l11.85-12c3.89,4.16,8.4,7.69,14,9.57,6.69,2.27,13.42,2.83,20.08-.19a16.3,16.3,0,0,0,2.91-1.65c4.66-3.42,4.72-9-.28-11.78a49,49,0,0,0-10.95-4c-6.22-1.72-12.58-3-18.8-4.7-15.94-4.43-20.84-22.73-9.34-34.73,6.11-6.38,13.93-9.15,22.54-9.87C377.59,852.51,391.54,857,400.83,864.57Z"/><path d="M405.56,855.49h17.28v78.78H405.56Z"/><path d="M413.87,849.17c-5.45,0-9.48-4.31-9.4-10a9.45,9.45,0,0,1,9.75-9.13,9.77,9.77,0,0,1,9.74,10C423.89,845.23,419.45,849.22,413.87,849.17Z"/><path d="M512.76,984.76h-7.28v-7.28h7.28Z"/><path d="M413,984.72h-7.34v-7.3H413Z"/><path d="M357.55,985.73V975.9H364l0,.49h-5.49v3.72h5.36v.76h-5.39v3.94h6.55c1-2.49,2-5.09,3.12-7.66a6,6,0,0,1,1.13-1.36,6.19,6.19,0,0,1,1.12,1.36c1.14,2.76,2.19,5.55,3.28,8.34l-.85.67c-.15-.42-.31-.84-.43-1.26-.41-1.5-1-2.49-2.93-2.42-1.72.07-2.88.33-3.39,2.18a2,2,0,0,1-1.51,1C362.33,985.79,360,985.73,357.55,985.73Zm13.66-4.06c-.68-1.69-1.22-3-1.95-4.83l-1.88,4.83Z"/><path d="M431.51,976v9.59l-.62.4-5.78-8-.49.13v7.47H424V975.52c2.95,2,3.85,5.53,6.73,8.15V976Z"/><path d="M433.77,985.55V975.47c3,2.17,4,5.54,6.7,8.2v-7.73h.67v9.64l-.48.44-6.06-8.51v8Z"/><path d="M349.24,981.08c-.11,1.83-.18,3.15-.26,4.47h-.5V975.8c1.65,0,3.38-.12,5.09,0s2.75,1.65,2.06,2.82c-1.19,2-.07,3.66,0,5.46a2.38,2.38,0,0,1-.35,1.66c-.46-1.33-.53-3.14-1.46-3.86S351,981.34,349.24,981.08Zm.09-4.94V981a52.43,52.43,0,0,0,5.08-1.6c.25-.1.24-1.8,0-1.88C352.84,977,351.17,976.6,349.33,976.14Z"/><path d="M452.51,980.69c0,3.17-1.81,5.19-4.66,5.19s-4.68-2-4.68-5.18,1.93-5.27,4.67-5.27S452.5,977.58,452.51,980.69Zm-8.36.08c0,2.61,1.52,4.29,3.78,4.25s3.67-1.81,3.64-4.4-1.66-4.37-3.8-4.32S444.12,978.2,444.15,980.77Z"/><path d="M399.43,980.88h-5.32v4.06h5.82l0,.62h-6.79v-9.64h6.44l0,.44-5.56.26v3.49h5.4Z"/><path d="M521.31,975.85h6.4l0,.5-5.56.28v3.52h5.41v.67l-5.38.26v3.83h5.83v.59h-6.76Z"/><path d="M583.67,985h5.83v.5h-6.75v-9.58h6.39l.05.44-5.56.25v3.54H589v.67l-5.38.25Z"/><path d="M491.88,980.19h5l0,.63-5.08.25v3.81h5.52l0,.6h-6.48v-9.62h6.23l.05.44-5.31.32Z"/><path d="M551.6,985.64h-6.5v-9.75h6.31l0,.44-5.37.3V980l5,.25,0,.54-5.14.32V985h5.59Z"/><path d="M561.25,978.79c-2.56-2.82-4.52-3.16-6.24-1.34a5,5,0,0,0,.22,6.73c1.81,1.6,3.5,1,6-2,.09,2.3-1,3.56-3.35,3.72-2.8.19-4.74-1.56-5-4.55s1.49-5.5,4.09-5.82C559.23,975.2,560.83,976.32,561.25,978.79Z"/><path d="M346,978.47c-3.64-2.43-5.33-2.56-6.69-.52s-.84,5.23,1,6.5,3.41.68,5.67-2.33a3.1,3.1,0,0,1-2.86,3.68,4.43,4.43,0,0,1-5.36-3.83c-.52-3.32.85-5.8,3.54-6.4A3.63,3.63,0,0,1,346,978.47Z"/><path d="M469.7,985.84c-1.25-1.24-1.24-3.52-4.08-3.48s-2.42,2.5-4.29,3.17c1.23-3,2.43-6.12,3.74-9.14.11-.25,1.37-.33,1.42-.2,1.31,3.08,2.54,6.21,3.78,9.32Zm-1.95-4.19-2.06-4.76c-.74,2-1.24,3.29-1.8,4.76Z"/><path d="M387.81,984.5l3.31-8.83.84.33q-1.83,4.9-3.67,9.81l-.69,0c-1.85-3.06-2.73-6.51-3.91-9.85l.73-.3C385.48,978.44,386.54,981.18,387.81,984.5Z"/><path d="M457.4,984.54l3.31-8.84.84.33q-1.83,4.9-3.67,9.83l-1,.1L453.22,976l.84-.34C455.09,978.43,456.13,981.17,457.4,984.54Z"/><path d="M482.16,975.68l3.3,8.85,3.33-8.84.83.34L486,985.88l-.94,0q-1.87-4.93-3.76-9.86Z"/><path d="M576.86,985.9,573.2,976l.82-.34c1.07,2.78,2.15,5.56,3.39,8.76,1.22-3.21,2.26-6,3.3-8.72l.83.32-3.64,9.78Z"/><path d="M529.77,985.57v-9.71h5.77l.05.43-4.84.35V980l4.4.23,0,.6-4.52.22c-.09,1.59-.18,3-.27,4.5Z"/><path d="M538.32,981.06c-.08,1.63-.15,3.08-.22,4.52l-.57,0v-9.65h5.7l.06.43-4.89.28v3.56h4.44l0,.66Z"/><path d="M474,976.73l-3.27-.45,0-.38h7.16l.08.37-3.18.43v8.9H474Z"/><path d="M569.63,976.33l-3.12.35v8.91h-.73v-8.85l-3.33-.42V976h7.17Z"/><path d="M380.08,976.26l-3.18.46v8.89h-.72v-8.85l-3.32-.45v-.37H380Z"/><path d="M571.31,985.6V976h.46v9.63Z"/><path d="M421.48,976v9.63H421V976Z"/><path d="M381.65,985.59V976h.45v9.6Z"/><path d="M480,976v9.64h-.44V976Z"/></svg>